<svg width="71" height="86" viewBox="0 0 71 86" fill="none" xmlns="http://www.w3.org/2000/svg">
<path d="M61.4759 57.9155C64.267 49.0768 56.4363 42.6028 52.172 40.4707C51.2028 43.9597 49.846 51.7517 52.172 55.008C54.498 58.2644 55.0794 62.5674 55.0794 64.3119V68.9639L61.4759 57.9155Z" fill="#1F1F1F" stroke="#1F1F1F"/>
<path d="M36.1879 3.12586C40.5345 0.531475 46.0011 0.171859 42.9901 5.73684C40.1491 10.9877 37.2661 12.7975 35.9813 13.1147C39.2065 12.4899 43.5998 11.6995 42.5705 15.767C41.8026 18.8012 37.7302 20.5204 36.7695 20.6488C39.3442 20.8914 41.2663 23.5679 39.1148 25.0287C34.8119 27.9503 32.0451 27.7329 31.1996 27.2589C31.5201 28.1939 31.8926 32.4453 24.5141 29.9113L16.9687 25.029C21.5228 18.6284 28.4436 7.74482 36.1879 3.12586Z" fill="white" stroke="#1F1F1F"/>
<path d="M50.4309 64.3091L24.8452 62.5646L13.7969 52.0977L16.1228 24.7676L46.942 26.5121L53.3384 36.9789L50.4309 64.3091Z" fill="#F40000"/>
<path d="M26.5897 36.9789L24.8452 62.5646M26.5897 36.9789H53.3384M26.5897 36.9789L16.1228 24.7676M26.5897 36.9789L29.8774 49.1903M24.8452 62.5646L50.4309 64.3091M24.8452 62.5646L13.7969 52.0977L16.1228 24.7676M24.8452 62.5646L29.8774 49.1903M50.4309 64.3091L53.3384 36.9789M50.4309 64.3091L48.1721 49.1903M53.3384 36.9789L46.942 26.5121L16.1228 24.7676M53.3384 36.9789L48.1721 49.1903M48.1721 49.1903L46.942 52.0977H30.6602L29.8774 49.1903" stroke="#1F1F1F"/>
<path d="M21.3522 56.1699L1 63.7293L9.72239 84.6631L13.7928 77.1037C34.1451 86.989 52.7529 78.2667 55.0788 75.9407C56.9396 74.0799 60.1184 62.7602 61.4753 57.3329C54.9625 71.2887 30.0746 68.5751 18.4448 65.4738L21.3522 56.1699Z" fill="#FDA3C4" stroke="#1F1F1F"/>
<path d="M39.5661 40.3994C41.1606 41.457 41.4473 42.8298 39.3784 43.9581C32.9823 47.4461 32.4005 39.3061 34.7265 36.3987C36.5872 34.0727 49.8452 18.3732 62.0566 13.139C66.7085 11.1432 72.1745 11.5108 68.453 16.6279C64.9415 21.4562 61.8442 22.8682 60.5288 23.0124C63.8082 22.8203 68.2675 22.6188 66.7085 26.5141C65.5456 29.4198 61.2812 30.5846 60.3121 30.5846C62.8319 31.1661 64.3826 34.0735 62.0566 35.2365C57.4046 37.5625 54.691 36.9804 53.9157 36.3987C54.1095 37.3678 53.9157 41.6312 46.9378 38.1422C48.5226 40.7835 47.2279 43.4256 39.5661 40.3994Z" fill="white" stroke="#1F1F1F"/>
</svg>
